<?xml version="1.0" encoding="UTF-8"?>
<svg id="katman_2" xmlns="http://www.w3.org/2000/svg" version="1.1" viewBox="0 0 48 48">
  <!-- Generator: Adobe Illustrator 29.8.1, SVG Export Plug-In . SVG Version: 2.1.1 Build 2)  -->
  <path d="M2.81,29.01c.3-.41.32-1.13.49-1.65.73-3.06,4.62-4.26,6.94-2.26,1.6,1.04,1.41,3.97,2.87,4.66,1.36.53,2.87.02,4.27.08,2.84,0,10.8,0,14.57,0,.55-.01.82-.18.97-.65.23-.87.34-2.16.82-3.03,1.57-3.24,6.85-2.77,7.61.81.29,1.32.91,2.18,2.32,1.61,1.08-.49,2.38-.44,3.25-1.11.62-.56.25-1.39.12-2.09-.22-1.19.38-3.42-.58-4.5-.77-.95-1.9-.85-3.08-.87-1.54,0-3.68,0-5.28,0-1.36-.12-2.28.34-3.11-.51-.57-.83-1.02-2.09-2.02-2.47-.67-.3-1.47-.41-2.17-.63-1.07-.45-3.72-.3-5.44-.32-2.62-.07-4.71-.04-7.17,1.32-2.85,1.15-4.9,3.31-8.25,3.26-1.96.18-3.74.37-5.75.63-.81.12-1.73.36-2.22.85-.51.47-.74,1.17-.9,1.83-.32,1.53-.73,3.47,0,4.22.37.38,1.11,1.08,1.64.87l.05-.05Z"/>
  <circle cx="7.55" cy="28.33" r="3.61"/>
  <circle cx="37.49" cy="28.33" r="3.61"/>
</svg>