<?xml version="1.0" encoding="UTF-8"?>
<svg xmlns="http://www.w3.org/2000/svg" viewBox="0 0 1024 1024">
  <defs>
    <style>
      .cls-1 {
        fill: #fff;
      }

      .cls-2 {
        fill: #0074ff;
      }
    </style>
  </defs>
  <g id="YAZI">
    <g>
      <path id="d" class="cls-1" d="M315.66,592.89v57.86h-.2c-2.02-3.78-4.47-6.97-7.35-9.57-2.87-2.6-6.19-4.58-9.98-5.93-3.78-1.35-8.11-2.03-12.97-2.03-8.58,0-16.29,2.29-23.15,6.89-6.86,4.6-12.29,11.09-16.27,19.51-3.99,8.41-5.97,18.39-5.97,29.94s1.92,21.75,5.78,30.2c3.85,8.44,9.22,14.94,16.11,19.51,6.88,4.55,14.85,6.84,23.91,6.84,4.86,0,9.27-.75,13.22-2.23,3.95-1.49,7.38-3.68,10.29-6.59,2.86-2.86,5.06-6.28,6.61-10.25.03-.07.06-.12.08-.19h.31v17.03h40.23v-150.99h-40.64ZM315.68,699.78c-.3,1.02-.64,2.01-1.03,2.95-1.56,3.72-3.75,6.59-6.59,8.62-2.84,2.02-6.12,3.04-9.83,3.04s-6.77-1.02-9.37-3.04c-2.6-2.03-4.58-4.89-5.93-8.62-1.35-3.71-2.03-8.11-2.03-13.17s.68-9.44,2.03-13.13c1.35-3.68,3.33-6.53,5.93-8.56,2.6-2.02,5.72-3.03,9.37-3.03s6.99,1.01,9.83,3.03c2.84,2.03,5.03,4.88,6.59,8.56.4.93.74,1.92,1.03,2.94.86,3.01,1.29,6.4,1.29,10.18s-.43,7.19-1.29,10.22Z"/>
      <path id="r" class="cls-1" d="M375.7,635.32c-4.37.64-8.05,2.02-11.02,4.16-3.63,2.62-6.43,6.86-8.38,12.73-.32.95-.61,1.95-.89,2.99h-.41v-19.96h-39.32v108.42h40.53v-53c0-.75.02-1.49.08-2.21.23-3.74,1.07-7.05,2.51-9.95,1.71-3.44,4.13-6.1,7.24-7.95,3.1-1.86,6.72-2.79,10.84-2.79,2.5,0,5.21.03,8.15.1,2.94.07,5.19.2,6.73.41v-32.94h-16.08Z"/>
      <path id="i" class="cls-1" d="M391.77,635.32v32.94h40.52v-32.94h-40.52ZM427.09,594.33c-4.02-3.61-9.11-5.43-15.25-5.43s-11.22,1.82-15.2,5.43c-3.99,3.61-5.98,8.22-5.98,13.83s2,10.13,5.98,13.78c3.99,3.64,9.05,5.47,15.2,5.47s11.23-1.83,15.25-5.47c4.02-3.66,6.03-8.24,6.03-13.78s-2.01-10.22-6.03-13.83Z"/>
      <path id="v" class="cls-1" d="M482.51,708.53c-.34-1.39-.69-2.77-1.03-4.16-1.86-7.46-3.87-14.87-6.03-22.23l-13.38-46.82h-42.26l11.76,32.94,26.95,75.49h46.92s.48-32.81,20.21-56.48l5.28-14.76,7.15-19.98,5.96-16.63c-12.54,2.33-45.61,14-61.54,72.63Z"/>
      <path id="a" class="cls-1" d="M633.52,666.03c-.54-3.11-1.45-6.02-2.75-8.72-2.24-4.66-5.54-8.63-9.93-11.91-4.39-3.27-9.76-5.77-16.11-7.49-.47-.12-.94-.25-1.42-.35-6.01-1.5-12.8-2.24-20.37-2.24-.73,0-1.44.01-2.15.02-9.95.18-18.42,1.69-25.41,4.5-7.45,2.97-13.2,7.21-17.29,12.69-.02.05-.06.08-.09.12-4.09,5.53-6.49,12.16-7.24,19.86h.18l11.87.26c9.84-5.68,22.28-9.28,37.99-9.28.24-.01.48-.01.73-.01,2.5,0,4.67.33,6.49.97,1.82.65,3.24,1.58,4.25,2.79,1.02,1.21,1.52,2.63,1.52,4.25v.41c0,2.03-.84,3.64-2.53,4.87-1.69,1.21-4.44,2.17-8.25,2.88-3.82.7-8.87,1.26-15.15,1.67-5.81.41-11.22,1.32-16.21,2.74-5.01,1.42-9.38,3.49-13.13,6.19s-6.68,6.17-8.77,10.38c-2.1,4.22-3.15,9.34-3.15,15.35,0,7.23,1.56,13.19,4.67,17.89,3.1,4.69,7.41,8.2,12.92,10.54,5.51,2.33,11.83,3.5,19,3.5,4.67,0,8.9-.54,12.72-1.62,3.82-1.08,7.27-2.87,10.33-5.37,3.08-2.5,5.79-5.88,8.16-10.14h.5v15.2h39.22v-72.86c0-2.46-.2-4.84-.59-7.09ZM594.19,707.58c0,3.24-.86,5.97-2.59,8.21-1.71,2.23-3.95,3.92-6.69,5.06-2.74,1.15-5.59,1.73-8.56,1.73-2.29,0-4.33-.36-6.07-1.07-1.76-.72-3.15-1.74-4.16-3.09s-1.52-2.97-1.52-4.87.52-3.46,1.57-4.92c1.06-1.44,2.57-2.67,4.56-3.64,1.99-.98,4.41-1.7,7.24-2.18,1.83-.34,3.51-.66,5.06-.97,1.56-.3,2.97-.6,4.26-.91,1.28-.31,2.5-.62,3.64-.97,1.15-.33,2.24-.7,3.25-1.11v8.72Z"/>
      <path id="r-2" data-name="r" class="cls-1" d="M657.78,637.25c-13.2,0-20.07,6.23-23.57,11.74-2.79,4.38-3.44,8.32-3.44,8.32-2.24-4.66-5.54-8.63-9.93-11.91-4.39-3.27-9.76-5.77-16.11-7.49-.47-.12-.94-.25-1.42-.35h-8.41v108.42h40.53v-53c0-4.66.86-8.71,2.59-12.16,1.71-3.44,4.13-6.1,7.24-7.95,3.1-1.86,6.72-2.79,10.84-2.79,2.5,0,5.21.03,8.15.1,2.94.07,5.19.2,6.73.41v-33.34h-13.2Z"/>
      <path id="c" class="cls-1" d="M744.21,706.09c-.82,2.03-1.9,3.76-3.25,5.17-1.35,1.42-2.92,2.51-4.71,3.25-1.79.75-3.77,1.11-5.93,1.11-3.51,0-6.55-.99-9.12-2.99-2.57-1.99-4.54-4.88-5.93-8.66-1.39-3.78-2.08-8.35-2.08-13.68s.69-9.88,2.08-13.63c1.39-3.75,3.34-6.62,5.87-8.62,2.53-1.99,5.6-2.99,9.17-2.99,2.16,0,4.13.37,5.93,1.11,1.79.75,3.36,1.81,4.71,3.19,1.35,1.39,2.43,3.05,3.25,5.02.81,1.96,1.32,4.19,1.52,6.69l38.5-1.21c-.41-6.82-2-13.06-4.77-18.7-2.77-5.63-6.55-10.48-11.34-14.53-4.8-4.05-10.46-7.2-16.97-9.42-6.52-2.24-13.69-3.35-21.53-3.35-11.63,0-21.74,2.37-30.35,7.1-8.62,4.72-15.29,11.33-20.02,19.81-4.72,8.47-7.1,18.35-7.1,29.63s2.37,21.07,7.1,29.59c4.72,8.52,11.4,15.11,20.02,19.81,8.61,4.69,18.72,7.04,30.35,7.04,7.97,0,15.26-1.11,21.88-3.35,6.62-2.23,12.35-5.39,17.18-9.51,4.83-4.12,8.57-9.03,11.25-14.69,2.66-5.68,4.1-11.97,4.3-18.85l-38.5-1.23c-.2,2.58-.72,4.87-1.52,6.89Z"/>
    </g>
    <path id="v_ve_a" data-name="v ve a" class="cls-1" d="M580.79,635.32v28.18c-15.71,0-28.15,3.6-37.99,9.28-6.91,3.99-12.55,8.99-17.14,14.5-19.73,23.66-20.21,56.48-20.21,56.48h-28.92s-3.25-1.26,5.98-35.22c15.93-58.63,49-70.31,61.54-72.63,3.12-.58,4.97-.58,4.97-.58h31.77Z"/>
  </g>
  <g id="LOGO">
    <g id="katman_4" data-name="katman 4">
      <rect class="cls-1" x="336.37" y="216.18" width="48.68" height="113.6"/>
      <rect class="cls-1" x="539.93" y="386.75" width="168.83" height="56.8" transform="translate(476.42 -319.88) rotate(45)"/>
      <rect class="cls-1" x="340.25" y="267.55" width="168.83" height="56.8" transform="translate(333.65 -213.6) rotate(45)"/>
      <polygon class="cls-2" points="664.62 215.36 584.74 335.38 583.53 336.58 425.67 494.46 385.5 454.29 543.38 296.43 543.41 296.39 664.61 215.35 664.62 215.36"/>
    </g>
  </g>
</svg>