<?xml version="1.0" encoding="UTF-8"?>
<svg id="LOGO" xmlns="http://www.w3.org/2000/svg" viewBox="155 400 700 220">
  <defs>
    <style>
      .cls-1 {
        fill: #fff;
      }
    </style>
  </defs>
  <g>
    <path id="d" class="cls-1" d="M274.32,420.39v70.19h-.25c-2.45-4.59-5.43-8.46-8.91-11.61-3.48-3.15-7.51-5.55-12.11-7.19-4.59-1.64-9.83-2.47-15.73-2.47-10.41,0-19.77,2.78-28.08,8.36-8.32,5.58-14.9,13.46-19.74,23.66-4.83,10.21-7.25,22.31-7.25,36.32s2.33,26.39,7.01,36.64c4.67,10.23,11.18,18.13,19.54,23.66,8.35,5.52,18.02,8.29,29.01,8.29,5.9,0,11.24-.91,16.03-2.7,4.79-1.8,8.95-4.46,12.48-7.99s6.14-7.62,8.02-12.44c.04-.08.07-.15.1-.23h.37v20.66h48.8v-183.16h-49.3ZM274.34,550.06c-.36,1.24-.77,2.44-1.25,3.58-1.89,4.52-4.55,7.99-7.99,10.45-3.44,2.45-7.42,3.69-11.93,3.69s-8.21-1.24-11.36-3.69c-3.15-2.47-5.55-5.94-7.19-10.45-1.64-4.5-2.47-9.83-2.47-15.98s.83-11.45,2.47-15.92c1.64-4.46,4.04-7.92,7.19-10.39,3.15-2.45,6.94-3.68,11.36-3.68s8.48,1.23,11.93,3.68c3.44,2.47,6.1,5.92,7.99,10.39.48,1.13.9,2.33,1.25,3.57,1.05,3.65,1.57,7.77,1.57,12.36s-.52,8.72-1.57,12.4Z"/>
    <path id="r" class="cls-1" d="M347.15,471.86c-5.3.77-9.77,2.45-13.37,5.04-4.41,3.18-7.8,8.32-10.17,15.44-.39,1.16-.74,2.37-1.07,3.62h-.5v-24.21h-47.7v131.53h49.17v-64.3c0-.91.03-1.8.1-2.69.28-4.53,1.29-8.55,3.04-12.07,2.08-4.17,5.01-7.4,8.79-9.64,3.76-2.26,8.15-3.39,13.15-3.39,3.03,0,6.32.04,9.89.12,3.57.08,6.29.25,8.17.5v-39.96h-19.5Z"/>
    <path id="i" class="cls-1" d="M348.65,471.86v39.96h49.16v-39.96h-49.16ZM391.49,422.14c-4.88-4.38-11.05-6.58-18.5-6.58s-13.61,2.2-18.44,6.58c-4.83,4.38-7.26,9.97-7.26,16.78s2.42,12.29,7.26,16.72c4.83,4.42,10.98,6.64,18.44,6.64s13.62-2.22,18.5-6.64c4.88-4.44,7.31-10,7.31-16.72s-2.44-12.4-7.31-16.78Z"/>
    <path id="v" class="cls-1" d="M458.72,560.68c-.41-1.68-.84-3.36-1.25-5.04-2.26-9.05-4.7-18.04-7.31-26.97l-16.23-56.8h-51.27l14.27,39.96,32.7,91.58h56.91s.58-39.81,24.52-68.51l6.4-17.91,8.68-24.24,7.23-20.18c-15.21,2.82-55.33,16.98-74.65,88.11Z"/>
    <path id="a" class="cls-1" d="M641.91,509.12c-.66-3.77-1.76-7.3-3.33-10.58-2.71-5.65-6.72-10.47-12.05-14.45-5.33-3.97-11.85-7-19.55-9.09-.56-.15-1.14-.3-1.72-.43-7.29-1.82-15.52-2.71-24.71-2.71-.88,0-1.75.01-2.6.03-12.07.22-22.34,2.05-30.83,5.45-9.04,3.61-16.02,8.75-20.98,15.4-.03.06-.07.1-.11.15-4.96,6.71-7.88,14.75-8.79,24.09h.22l14.39.32c11.94-6.89,27.02-11.25,46.09-11.25.29-.01.58-.01.88-.01,3.03,0,5.66.4,7.88,1.17,2.2.79,3.93,1.91,5.15,3.39,1.24,1.47,1.85,3.2,1.85,5.15v.5c0,2.47-1.02,4.42-3.07,5.91-2.05,1.47-5.39,2.63-10.01,3.5-4.63.85-10.76,1.53-18.37,2.02-7.05.5-13.61,1.6-19.67,3.32-6.07,1.72-11.38,4.23-15.92,7.51s-8.1,7.48-10.63,12.59c-2.55,5.12-3.82,11.34-3.82,18.62,0,8.77,1.89,16.01,5.66,21.71,3.76,5.69,8.99,9.94,15.67,12.78,6.68,2.82,14.35,4.24,23.04,4.24,5.66,0,10.8-.66,15.43-1.97,4.63-1.31,8.82-3.48,12.53-6.51,3.73-3.03,7.02-7.13,9.9-12.3h.61v18.44h47.57v-88.39c0-2.99-.25-5.87-.72-8.59ZM594.2,559.52c0,3.93-1.05,7.25-3.14,9.96-2.08,2.7-4.79,4.75-8.11,6.14-3.32,1.39-6.78,2.09-10.39,2.09-2.78,0-5.25-.44-7.37-1.29-2.14-.87-3.82-2.11-5.04-3.75s-1.85-3.61-1.85-5.91.63-4.2,1.9-5.96c1.28-1.75,3.11-3.24,5.54-4.42,2.41-1.18,5.34-2.07,8.79-2.64,2.22-.41,4.26-.8,6.14-1.17,1.89-.36,3.61-.73,5.17-1.1,1.56-.37,3.03-.76,4.42-1.17,1.39-.4,2.71-.85,3.94-1.35v10.58Z"/>
    <path id="r-2" data-name="r" class="cls-1" d="M671.35,474.2c-16.02,0-24.35,7.56-28.59,14.24-3.39,5.32-4.17,10.1-4.17,10.1-2.71-5.65-6.72-10.47-12.05-14.45-5.33-3.97-11.85-7-19.55-9.09-.56-.15-1.14-.3-1.72-.43h-10.21v131.53h49.17v-64.3c0-5.65,1.05-10.56,3.14-14.75,2.08-4.17,5.01-7.4,8.79-9.64,3.76-2.26,8.15-3.39,13.15-3.39,3.03,0,6.32.04,9.89.12,3.57.08,6.29.25,8.17.5v-40.44h-16.02Z"/>
    <path id="c" class="cls-1" d="M776.2,557.71c-.99,2.47-2.3,4.56-3.94,6.27-1.64,1.72-3.54,3.04-5.72,3.94-2.18.91-4.57,1.35-7.19,1.35-4.26,0-7.95-1.2-11.06-3.62-3.11-2.41-5.51-5.92-7.19-10.51-1.68-4.59-2.52-10.12-2.52-16.6s.84-11.98,2.52-16.53c1.68-4.55,4.05-8.03,7.12-10.45,3.07-2.41,6.79-3.62,11.13-3.62,2.62,0,5.01.45,7.19,1.35,2.18.91,4.08,2.19,5.72,3.87,1.64,1.68,2.95,3.71,3.94,6.09.98,2.38,1.6,5.08,1.85,8.11l46.71-1.47c-.5-8.28-2.42-15.84-5.79-22.69-3.36-6.83-7.95-12.71-13.76-17.63-5.83-4.92-12.69-8.73-20.59-11.43-7.91-2.71-16.61-4.06-26.12-4.06-14.1,0-26.38,2.88-36.82,8.61-10.45,5.73-18.55,13.75-24.28,24.04-5.73,10.28-8.61,22.26-8.61,35.95s2.88,25.56,8.61,35.89c5.73,10.33,13.83,18.33,24.28,24.04,10.44,5.69,22.71,8.54,36.82,8.54,9.67,0,18.51-1.35,26.54-4.06,8.03-2.7,14.99-6.54,20.84-11.54,5.85-5,10.4-10.95,13.65-17.82,3.22-6.89,4.97-14.52,5.22-22.86l-46.71-1.49c-.25,3.13-.87,5.91-1.85,8.36Z"/>
  </g>
  <path id="v_ve_a" data-name="v ve a" class="cls-1" d="M577.95,471.86v34.19c-19.06,0-34.15,4.37-46.09,11.25-8.39,4.83-15.22,10.91-20.8,17.59-23.94,28.7-24.52,68.51-24.52,68.51h-35.08s-3.94-1.53,7.26-42.73c19.32-71.13,59.45-85.29,74.65-88.11,3.79-.7,6.03-.7,6.03-.7h38.54Z"/>
</svg>